<!-- 마리아의료재단 워드마크 (custom BI, NOT a font). source: 01.로고/로고모음/로고 색상별.ai p1 via pdftocairo -->
<svg role="img" aria-label="MARIA" xmlns="http://www.w3.org/2000/svg" xmlns:xlink="http://www.w3.org/1999/xlink" width="601.431" height="228.788" viewBox="0 0 601.431 228.788">
<path fill-rule="nonzero" fill="#1E3131" fill-opacity="1" d="M 343.148438 39.691406 C 343.148438 46.632812 337.523438 52.261719 330.582031 52.261719 C 323.640625 52.261719 318.015625 46.632812 318.015625 39.691406 C 318.015625 32.75 323.640625 27.125 330.582031 27.125 C 337.523438 27.125 343.148438 32.75 343.148438 39.691406 "/>
<path fill-rule="nonzero" fill="#1E3131" fill-opacity="1" d="M 155.222656 176.390625 L 155.222656 81.0625 L 113.152344 176.390625 L 106.691406 176.390625 L 64.9375 81.0625 L 64.9375 176.390625 L 52.585938 176.390625 L 52.585938 59.003906 L 76.125 59.003906 L 116.460938 150.078125 L 156.640625 59.003906 L 175.546875 59.003906 L 175.546875 176.390625 Z M 155.222656 176.390625 "/>
<path fill-rule="nonzero" fill="#1E3131" fill-opacity="1" d="M 233.621094 86.417969 L 217.234375 127.070312 L 250.480469 127.070312 Z M 270.648438 176.390625 C 264.1875 160.316406 261.667969 154.332031 261.667969 154.332031 L 253.472656 134.632812 L 214.554688 134.632812 L 198.484375 176.390625 L 188.398438 176.390625 L 236.929688 59.003906 L 242.757812 59.003906 L 292.550781 176.390625 Z M 270.648438 176.390625 "/>
<path fill-rule="nonzero" fill="#1E3131" fill-opacity="1" d="M 411.75 176.390625 L 411.75 59.003906 L 431.917969 59.003906 L 431.917969 176.390625 Z M 411.75 176.390625 "/>
<path fill-rule="nonzero" fill="#1E3131" fill-opacity="1" d="M 489.683594 86.417969 L 473.300781 127.070312 L 506.546875 127.070312 Z M 526.714844 176.390625 C 520.253906 160.316406 517.730469 154.332031 517.730469 154.332031 L 509.539062 134.632812 L 470.621094 134.632812 L 454.546875 176.390625 L 444.464844 176.390625 L 492.996094 59.003906 L 498.824219 59.003906 L 548.613281 176.390625 Z M 526.714844 176.390625 "/>
<path fill-rule="nonzero" fill="#1E3131" fill-opacity="1" d="M 323.382812 106.070312 L 323.382812 75.394531 L 303.371094 75.394531 L 303.371094 176.390625 L 323.382812 176.390625 Z M 323.382812 106.070312 "/>
<path fill-rule="nonzero" fill="#1E3131" fill-opacity="1" d="M 380.5 134.050781 C 371.214844 123.417969 361.164062 120.683594 352.6875 119.195312 C 360.726562 117.300781 365.636719 113.519531 370.207031 109.109375 C 376.035156 103.59375 378.410156 96.820312 378.410156 88.941406 C 378.410156 82.164062 376.667969 76.335938 372.253906 71.453125 C 367.84375 66.566406 363.402344 63.730469 356.46875 61.683594 C 349.539062 59.632812 340.714844 59.003906 330 59.003906 L 297.851562 59.003906 L 297.851562 67.667969 L 328.421875 67.667969 C 341.660156 67.667969 349.695312 69.246094 352.847656 73.183594 C 356.46875 77.4375 358.359375 82.953125 358.359375 90.515625 C 358.359375 94.769531 357.730469 98.238281 356.785156 101.074219 C 355.683594 103.910156 354.265625 105.957031 352.53125 107.691406 C 350.484375 109.582031 348.117188 111.472656 345.441406 112.261719 C 343.863281 112.734375 342.132812 113.363281 340.242188 113.835938 C 338.351562 114.308594 332.78125 114.78125 332.78125 114.78125 L 332.78125 123.054688 C 365.472656 126.945312 376.996094 146.691406 377.707031 176.390625 L 394.59375 176.390625 C 393.261719 154.808594 389.789062 144.6875 380.5 134.050781 "/>
</svg>
